<svg xmlns="http://www.w3.org/2000/svg" xmlns:xlink="http://www.w3.org/1999/xlink" enable-background="new" viewBox="0 0 200 40" height="40" width="200">
  <title>
    Piccolo2D Logo
  </title>
  <defs>
    <g id="h" enable-background="new">
      <use xlink:href="#a" width="100%" height="100%"/>
      <use transform="translate(-16,1.1920929e-7)" height="100%" width="100%" xlink:href="#a"/>
      <use transform="translate(-6.9999999,6.000002)" xlink:href="#a" width="100%" height="100%"/>
      <use transform="translate(13,4.000002)" height="100%" width="100%" xlink:href="#a"/>
      <use transform="translate(7.0000001,-7.999998)" xlink:href="#a" width="100%" height="100%"/>
    </g>
    <circle r="3" id="a" cx="26.5" cy="19.5" fill="url(#b)" stroke="url(#c)" stroke-linecap="round" stroke-linejoin="round" enable-background="new"/>
    <linearGradient id="d">
      <stop offset="0" stop-color="#afd2ec"/>
      <stop offset=".65" stop-color="#93b7df"/>
      <stop offset="1" stop-color="#9b95cb"/>
    </linearGradient>
    <linearGradient id="e">
      <stop offset="0" stop-color="#b4b4b4"/>
      <stop offset="1" stop-color="#625773"/>
    </linearGradient>
    <filter id="f" width="1.4" height="1.4" color-interpolation-filters="sRGB">
      <feFlood result="flood" flood-color="#000" flood-opacity=".9"/>
      <feComposite result="composite1" operator="in" in2="SourceGraphic" in="flood"/>
      <feGaussianBlur result="blur" stdDeviation="4" in="composite1"/>
      <feOffset result="offset" dy="5" dx="5"/>
      <feComposite result="composite2" in2="offset" in="SourceGraphic"/>
    </filter>
    <filter id="g" color-interpolation-filters="sRGB">
      <feFlood result="flood" flood-color="#000" flood-opacity=".95"/>
      <feComposite result="composite1" operator="in" in2="SourceGraphic" in="flood"/>
      <feGaussianBlur result="blur" stdDeviation="1" in="composite1"/>
      <feOffset result="offset" dy="2" dx="2"/>
      <feComposite result="composite2" in2="offset" in="SourceGraphic"/>
    </filter>
    <filter id="i">
      <feColorMatrix values="0" type="saturate" in="SourceGraphic"/>
    </filter>
    <linearGradient y2="52.32" x2="27.99" y1="40.84" x1="21.66" gradientTransform="matrix(0.3999999,0,0,0.40000004,16.212491,0.787497)" gradientUnits="userSpaceOnUse" id="b" xlink:href="#d"/>
    <linearGradient y2="52.32" x2="27.99" y1="40.84" x1="21.66" gradientTransform="matrix(0.3999999,0,0,0.40000004,16.212491,0.787497)" gradientUnits="userSpaceOnUse" id="c" xlink:href="#e"/>
    <clipPath id="j">
      <rect width="17" height="14" x="18.5" y="11.5" rx=".41" fill="none" stroke="#d947eb" stroke-width=".5" stroke-linecap="round" stroke-linejoin="round" stroke-opacity=".78" enable-background="new"/>
    </clipPath>
  </defs>
  <g font-weight="600" font-family="Lucida Grande" letter-spacing="0" word-spacing="0">
    <path d="M56.05 26.28V6.2h7.1q3.73 0 5.32 1.23 1.6 1.23 1.6 4.1 0 3.26-2.14 5.08-2.12 1.8-5.95 1.8H60.2v7.88h-4.15zm4.16-10.62h.84q2.18 0 3.43-1 1.27-1 1.27-2.7 0-3-3.87-3H60.2v6.7z" style="line-height:125%;-inkscape-font-specification:'Lucida Grande, Semi-Bold';text-align:start" fill="#ff0909"/>
    <g fill="#737373">
      <path d="M73.36 26.28v-14.9h4.08v14.9h-4.08zm0-17.4V5.5h4.08v3.35h-4.08zM93.67 25.96q-2.53.66-4.7.66-3.62 0-5.73-2.1-2.1-2.1-2.1-5.7 0-3.65 2.17-5.7 2.17-2.08 6-2.08 1.84 0 4.25.6v2.9q-2.5-.8-4-.8-1.85 0-2.96 1.38-1.13 1.38-1.13 3.67 0 2.34 1.2 3.75 1.2 1.4 3.23 1.4 1.83 0 3.77-.77v2.78zM108.67 25.96q-2.54.66-4.7.66-3.63 0-5.74-2.1-2.1-2.1-2.1-5.7 0-3.65 2.17-5.7 2.17-2.08 5.98-2.08 1.85 0 4.26.6v2.9q-2.5-.8-4-.8-1.84 0-2.96 1.38-1.1 1.38-1.1 3.67 0 2.34 1.18 3.75 1.22 1.4 3.23 1.4 1.82 0 3.77-.77v2.78zM118.85 26.62q-3.54 0-5.64-2.1-2.07-2.12-2.07-5.7 0-3.6 2.1-5.7 2.1-2.08 5.72-2.08 3.62 0 5.7 2.1 2.12 2.08 2.12 5.67 0 3.67-2.1 5.75-2.1 2.07-5.82 2.07zm.07-2.5q3.5 0 3.5-5.3 0-2.44-.92-3.85-.93-1.42-2.55-1.42-1.62 0-2.55 1.42-.93 1.4-.93 3.86 0 2.43.93 3.86.92 1.4 2.52 1.4zM130.52 26.28V4.86h4.08v21.42h-4.08zM146.02 26.62q-3.54 0-5.63-2.1-2.1-2.12-2.1-5.7 0-3.6 2.1-5.7 2.1-2.08 5.72-2.08 3.63 0 5.72 2.1 2.1 2.08 2.1 5.67 0 3.67-2.1 5.75-2.1 2.07-5.82 2.07zm.07-2.5q3.5 0 3.5-5.3 0-2.44-.93-3.85-.92-1.42-2.55-1.42-1.6 0-2.55 1.42-.92 1.4-.92 3.86 0 2.43.92 3.86.93 1.4 2.52 1.4z" style="line-height:125%;-inkscape-font-specification:'Lucida Grande, Semi-Bold';text-align:start"/>
    </g>
    <g transform="translate(0,-59.99994) matrix(0.40318685,0,0,0.39702951,0.56746837,60.297769)" fill="#ff0909" filter="url(#f)">
      <path style="line-height:125%;-inkscape-font-specification:'Lucida Grande, Semi-Bold';text-align:start" d="M388.42 65.45v-8l.55-.75q4.06-5.43 8.34-9.16l4.14-3.66q10.22-9.02 10.22-15.82 0-7.93-9.02-7.93-5.57 0-12.92 3.76v-7.43q7.72-2.87 14.94-2.87 8.06 0 12.92 3.83 4.85 3.8 4.85 10.18 0 4.42-2.36 8.05-2.36 3.62-8.3 8.4l-3.42 2.74q-7.15 5.73-8.48 10.65h22.35v8h-33.8zM435.93 65.45v-50.6h21.77q11.76 0 18.02 6.27 6.25 6.22 6.25 17.98 0 12.5-6.63 19.45-6.63 6.9-18.56 6.9h-20.85zm10.53-7.18h7.86q8.3 0 12.37-4.58 4.1-4.62 4.1-14 0-7.23-3.3-12.05-2.24-3.32-5.42-4.58-3.18-1.27-9.26-1.27h-6.36v36.47z"/>
    </g>
    <g style="line-height:125%;-inkscape-font-specification:'Lucida Grande, Semi-Bold';text-align:start" font-size="19.38" fill="#494949">
      <path d="M55.44 35.46v-.96q.9.38 1.56.38.45 0 .7-.2.27-.2.27-.54 0-.27-.16-.46-.15-.18-.6-.44l-.4-.2q-.75-.43-1.06-.8-.3-.4-.3-.9 0-.7.5-1.12.5-.4 1.36-.4.67 0 1.52.18v.9q-.87-.33-1.37-.33-.4 0-.63.17-.23.17-.23.45 0 .22.15.4.17.16.62.42l.4.22q.82.45 1.13.83.3.38.3.92 0 .76-.57 1.2-.6.44-1.6.44-.7 0-1.6-.18zM62.38 35.48q-.4.12-.63.12-1.47 0-1.47-1.35v-2.17h-.47v-.7h.48v-.7l1.13-.12v.82h.9v.7h-.9v2.02q0 .76.64.76.14 0 .34-.05v.68zM63.4 35.5v-4.12h1.13v.78q.44-.87 1.33-.87h.2v1q-.23-.1-.43-.1-.68 0-1.1.7v2.6H63.4zM69.54 35.5v-.77q-.55.87-1.42.87-.56 0-.9-.35-.3-.35-.3-.95v-2.92h1.12v2.64q0 .7.47.7.55 0 1.04-.74v-2.6h1.13v4.12h-1.13zM75.17 35.4q-.7.2-1.3.2-1 0-1.6-.58-.57-.58-.57-1.58t.6-1.58q.6-.57 1.66-.57.5 0 1.17.15v.8q-.7-.22-1.1-.22-.5 0-.82.38-.3.4-.3 1.03 0 .65.33 1.04.34.4.9.4.5 0 1.04-.23v.77zM78.4 35.48q-.42.12-.65.12-1.47 0-1.47-1.35v-2.17h-.47v-.7h.48v-.7l1.13-.12v.82h.9v.7h-.9v2.02q0 .76.64.76.15 0 .35-.05v.68zM82 35.5v-.77q-.56.87-1.43.87-.56 0-.9-.35-.3-.35-.3-.95v-2.92h1.12v2.64q0 .7.46.7.54 0 1.03-.74v-2.6h1.12v4.12H82zM84.53 35.5v-4.12h1.13v.78q.44-.87 1.33-.87h.2v1q-.24-.1-.44-.1-.68 0-1.1.7v2.6h-1.13zM91.5 35.37q-.8.23-1.53.23-1.05 0-1.66-.6-.6-.57-.6-1.6 0-.95.56-1.53.56-.58 1.47-.58.92 0 1.34.56.42.57.42 1.8h-2.6q.1 1.18 1.3 1.18.58 0 1.3-.26v.8zm-2.62-2.33h1.5q0-1.06-.7-1.06t-.8 1.06zM95.3 35.5v-.77q-.44.87-1.37.87-.76 0-1.2-.55-.42-.54-.42-1.5 0-1.03.5-1.65.48-.6 1.3-.6.66 0 1.2.5v-2.23h1.13v5.93H95.3zm0-3.04q-.4-.45-.88-.45-.4 0-.66.4-.25.4-.25 1.06 0 1.27.84 1.27.5 0 .96-.64v-1.64zM100.27 35.5v-.87l.06-.1q.45-.58.93-1l.46-.4q1.14-1 1.14-1.73 0-.88-1-.88-.63 0-1.45.42v-.82q.87-.3 1.68-.3.9 0 1.44.4.54.42.54 1.13 0 .48-.26.88t-.93.92l-.38.3q-.8.63-.95 1.18h2.5v.87h-3.78zM105.57 35.5v-5.55H108q1.3 0 2 .68.7.7.7 1.98 0 1.38-.73 2.15-.74.75-2.07.75h-2.33zm1.17-.78h.88q.93 0 1.38-.5.46-.5.46-1.54 0-.8-.37-1.33-.26-.36-.6-.5-.37-.14-1.05-.14h-.7v4.02zM118.85 35.37q-1.06.27-1.83.27-1.46 0-2.25-.75-.78-.77-.78-2.18 0-1.4.77-2.16.8-.75 2.24-.75.94 0 1.85.22v.9q-1.06-.35-1.74-.35-.9 0-1.37.56-.5.57-.5 1.6 0 1 .53 1.57.52.57 1.44.57.2 0 .48-.06V33h1.17v2.4zM120.17 35.5v-4.12h1.13v.78q.44-.87 1.33-.87h.2v1q-.23-.1-.43-.1-.68 0-1.1.7v2.6h-1.13zM125.78 35.06q-.57.54-1.2.54-.56 0-.9-.33-.35-.33-.35-.86 0-.67.56-1.04.54-.37 1.58-.37h.3v-.4q0-.63-.75-.63-.66 0-1.33.37v-.77q.77-.28 1.52-.28 1.64 0 1.64 1.27v1.83q0 .48.32.48h.15l.02.6q-.36.12-.63.12-.7 0-.9-.54h-.04zm0-.6v-.83h-.27q-1.08 0-1.08.67 0 .23.15.4.16.14.4.14.4 0 .8-.38zM128.32 37v-5.62h1.13v.78q.43-.87 1.37-.87.75 0 1.18.53.44.55.44 1.5 0 1.04-.5 1.65-.48.62-1.3.62-.66 0-1.2-.5V37h-1.12zm1.13-2.57q.4.45.87.45.42 0 .67-.4.24-.4.24-1.06 0-1.26-.83-1.26-.5 0-.95.63v1.63zM133.5 35.5v-5.93h1.12v2.6q.55-.88 1.43-.88.56 0 .88.34.32.35.32.95v2.9h-1.12v-2.64q0-.7-.48-.7-.54 0-1.03.75v2.6h-1.13zM138.62 35.5v-4.12h1.13v4.12h-1.13zm0-4.8v-.94h1.13v.93h-1.13zM144.24 35.4q-.7.2-1.3.2-1 0-1.6-.58-.57-.58-.57-1.58t.6-1.58q.6-.57 1.66-.57.5 0 1.17.15v.8q-.7-.22-1.1-.22-.5 0-.82.38-.3.4-.3 1.03 0 .65.32 1.04.34.4.9.4.5 0 1.04-.23v.77zM145.2 35.37v-.8q.83.33 1.42.33.7 0 .7-.46 0-.3-.58-.53l-.38-.14q-.62-.25-.9-.53-.25-.3-.25-.7 0-.6.46-.92.46-.3 1.27-.3.5 0 1.22.13v.78q-.68-.22-1.13-.22-.7 0-.7.43 0 .3.52.5l.33.1q.73.28 1.02.57.28.28.28.72 0 .57-.5.94-.48.36-1.27.36-.74 0-1.5-.23zM152.3 35.5v-5.55h3.54v.76h-2.38v1.7h1.95v.76h-1.94v2.34h-1.17zM156.77 35.5v-4.12h1.13v.78q.44-.87 1.34-.87h.2v1q-.23-.1-.44-.1-.67 0-1.1.7v2.6h-1.13zM162.38 35.06q-.56.54-1.2.54-.56 0-.9-.33-.35-.33-.35-.86 0-.67.56-1.04.54-.37 1.58-.37h.3v-.4q0-.63-.74-.63-.66 0-1.34.37v-.77q.77-.28 1.52-.28 1.64 0 1.64 1.27v1.83q0 .48.32.48h.15l.03.6q-.36.12-.64.12-.7 0-.9-.54h-.04zm0-.6v-.83h-.27q-1.08 0-1.08.67 0 .23.15.4.16.14.4.14.4 0 .8-.38zM164.92 35.5v-4.12H166v.78q.5-.87 1.4-.87.5 0 .8.22.3.22.37.64.58-.87 1.42-.87 1.13 0 1.13 1.23v2.97h-1.08v-2.6q0-.73-.5-.73t-.98.72v2.6h-1.1v-2.6q0-.74-.5-.74t-.97.73v2.6h-1.08zM175.9 35.37q-.8.23-1.53.23-1.05 0-1.65-.6-.6-.57-.6-1.6 0-.95.54-1.53.56-.58 1.47-.58.92 0 1.34.56.43.57.43 1.8h-2.6q.1 1.18 1.32 1.18.56 0 1.28-.26v.8zm-2.62-2.33h1.5q0-1.06-.68-1.06-.7 0-.82 1.06zM177.8 35.5l-1.16-4.12h1.05l.8 2.9.9-2.9h.97l.8 2.9.88-2.9h.78l-1.24 4.12h-1.1l-.76-2.82-.85 2.82h-1.1zM185.57 35.6q-.98 0-1.56-.58-.57-.6-.57-1.58 0-1 .58-1.58.6-.57 1.6-.57t1.58.56q.58.58.58 1.58t-.58 1.58q-.6.58-1.6.58zm.02-.7q.96 0 .96-1.46 0-.68-.26-1.07-.26-.4-.7-.4-.45 0-.7.4-.27.4-.27 1.07t.26 1.07q.24.4.7.4zM188.8 35.5v-4.12h1.13v.78q.44-.87 1.33-.87h.2v1q-.23-.1-.43-.1-.68 0-1.1.7v2.6h-1.13zM192.35 35.5v-5.93h1.13v3.73h.07l1.5-1.92h.93l-1.37 1.77 1.82 2.35h-1.38l-1.5-2.06h-.06v2.06h-1.13z"/>
    </g>
  </g>
  <rect rx=".4" y="63" x="4" height="33" width="42" fill="#f8f8f8" filter="url(#g)" transform="translate(0,-59.99994)" opacity=".8"/>
  <g transform="translate(0,-59.99994)" fill="none" stroke="#8c8c8c">
    <rect rx=".38" y="72.5" x="33.5" height="21" width="11" stroke-linecap="round" stroke-linejoin="round"/>
    <path d="M26.38 79.3l7.1-7.94M19.45 85.63l7.05-6.46M26.5 79.28l12.98 4.2"/>
    <rect rx=".4" y="79.5" x="13.5" height="12" width="14" stroke-linecap="round" stroke-linejoin="round"/>
    <rect rx=".38" y="73.5" x="5.5" height="11" width="10" stroke-linecap="round" stroke-linejoin="round"/>
    <rect rx=".41" y="65.5" x="23.5" height="12" width="19" stroke-linecap="round" stroke-linejoin="round"/>
  </g>
  <use height="100%" width="100%" xlink:href="#h" filter="url(#i)"/>
  <use clip-path="url(#j)" xlink:href="#h" width="100%" height="100%"/>
  <rect width="17" height="14" x="18.5" y="71.5" rx=".41" fill="none" stroke="#e00000" stroke-linecap="round" stroke-linejoin="round" transform="translate(0,-59.99994)"/>
</svg>
